<svg width="28" height="9" viewBox="0 0 28 9" fill="none" xmlns="http://www.w3.org/2000/svg">
<path d="M4.87 7L4.546 5.659H2.728L2.413 7H0.883L2.764 0.763H4.555L6.436 7H4.87ZM2.98 4.588H4.294L3.637 1.834L2.98 4.588ZM11.2676 2.5C10.9556 2.626 10.4966 2.689 9.89059 2.689C10.2026 2.821 10.4306 2.983 10.5746 3.175C10.7186 3.367 10.7906 3.616 10.7906 3.922C10.7906 4.228 10.7096 4.504 10.5476 4.75C10.3856 4.99 10.1516 5.179 9.84559 5.317C9.54559 5.455 9.19159 5.524 8.78359 5.524C8.59159 5.524 8.40859 5.506 8.23459 5.47C8.18659 5.494 8.14759 5.533 8.11759 5.587C8.09359 5.635 8.08159 5.686 8.08159 5.74C8.08159 5.83 8.11459 5.902 8.18059 5.956C8.25259 6.004 8.39359 6.028 8.60359 6.028H9.32359C9.68959 6.028 10.0106 6.088 10.2866 6.208C10.5626 6.328 10.7756 6.493 10.9256 6.703C11.0756 6.913 11.1506 7.15 11.1506 7.414C11.1506 7.912 10.9346 8.299 10.5026 8.575C10.0766 8.857 9.45859 8.998 8.64859 8.998C8.06659 8.998 7.60759 8.935 7.27159 8.809C6.93559 8.689 6.69859 8.518 6.56059 8.296C6.42859 8.074 6.36259 7.795 6.36259 7.459H7.64059C7.64059 7.603 7.66759 7.717 7.72159 7.801C7.78159 7.885 7.88659 7.948 8.03659 7.99C8.18659 8.032 8.40259 8.053 8.68459 8.053C9.07459 8.053 9.34459 8.005 9.49459 7.909C9.64459 7.819 9.71959 7.687 9.71959 7.513C9.71959 7.369 9.66259 7.255 9.54859 7.171C9.43459 7.087 9.26359 7.045 9.03559 7.045H8.34259C7.85059 7.045 7.48159 6.958 7.23559 6.784C6.99559 6.604 6.87559 6.376 6.87559 6.1C6.87559 5.926 6.92659 5.758 7.02859 5.596C7.13059 5.428 7.26859 5.29 7.44259 5.182C7.14259 5.02 6.92359 4.831 6.78559 4.615C6.65359 4.393 6.58759 4.126 6.58759 3.814C6.58759 3.28 6.77959 2.857 7.16359 2.545C7.54759 2.227 8.05459 2.068 8.68459 2.068C9.16459 2.08 9.56959 2.032 9.89959 1.924C10.2356 1.816 10.5806 1.657 10.9346 1.447L11.2676 2.5ZM8.72059 3.004C8.49859 3.004 8.32159 3.076 8.18959 3.22C8.06359 3.358 8.00059 3.55 8.00059 3.796C8.00059 4.054 8.06359 4.255 8.18959 4.399C8.32159 4.537 8.49859 4.606 8.72059 4.606C8.95459 4.606 9.13159 4.537 9.25159 4.399C9.37759 4.261 9.44059 4.054 9.44059 3.778C9.44059 3.262 9.20059 3.004 8.72059 3.004ZM15.7885 4.516C15.7885 4.714 15.7795 4.885 15.7615 5.029H12.8005C12.8485 5.431 12.9625 5.713 13.1425 5.875C13.3225 6.037 13.5715 6.118 13.8895 6.118C14.0815 6.118 14.2675 6.085 14.4475 6.019C14.6275 5.947 14.8225 5.839 15.0325 5.695L15.6175 6.487C15.0595 6.931 14.4385 7.153 13.7545 7.153C12.9805 7.153 12.3865 6.925 11.9725 6.469C11.5585 6.013 11.3515 5.401 11.3515 4.633C11.3515 4.147 11.4385 3.712 11.6125 3.328C11.7865 2.938 12.0415 2.632 12.3775 2.41C12.7135 2.182 13.1155 2.068 13.5835 2.068C14.2735 2.068 14.8135 2.284 15.2035 2.716C15.5935 3.148 15.7885 3.748 15.7885 4.516ZM14.3935 4.111C14.3815 3.379 14.1235 3.013 13.6195 3.013C13.3735 3.013 13.1815 3.103 13.0435 3.283C12.9115 3.463 12.8305 3.76 12.8005 4.174H14.3935V4.111ZM19.3863 2.068C19.8003 2.068 20.1243 2.194 20.3583 2.446C20.5923 2.698 20.7093 3.052 20.7093 3.508V7H19.2873V3.751C19.2873 3.511 19.2483 3.346 19.1703 3.256C19.0983 3.16 18.9873 3.112 18.8373 3.112C18.5493 3.112 18.2733 3.319 18.0093 3.733V7H16.5873V2.221H17.8293L17.9283 2.788C18.1323 2.548 18.3513 2.368 18.5853 2.248C18.8253 2.128 19.0923 2.068 19.3863 2.068ZM23.8516 2.068C24.1816 2.068 24.4786 2.116 24.7426 2.212C25.0066 2.308 25.2556 2.455 25.4896 2.653L24.8776 3.499C24.5776 3.271 24.2746 3.157 23.9686 3.157C23.6506 3.157 23.4106 3.274 23.2486 3.508C23.0866 3.742 23.0056 4.12 23.0056 4.642C23.0056 5.146 23.0866 5.503 23.2486 5.713C23.4106 5.923 23.6446 6.028 23.9506 6.028C24.1126 6.028 24.2596 6.004 24.3916 5.956C24.5236 5.902 24.6826 5.818 24.8686 5.704L25.4896 6.586C25.0156 6.964 24.4786 7.153 23.8786 7.153C23.3926 7.153 22.9726 7.051 22.6186 6.847C22.2646 6.637 21.9916 6.346 21.7996 5.974C21.6076 5.596 21.5116 5.155 21.5116 4.651C21.5116 4.147 21.6076 3.7 21.7996 3.31C21.9916 2.92 22.2646 2.617 22.6186 2.401C22.9726 2.179 23.3836 2.068 23.8516 2.068ZM27.5913 0.763V7H26.1153V0.763H27.5913Z" fill="white"/>
</svg>
