<svg width="32" height="32" viewBox="0 0 32 32" fill="none" xmlns="http://www.w3.org/2000/svg">
<rect width="32" height="32" rx="5" fill="#1F2023"/>
<path d="M5.87 18L5.546 16.659H3.728L3.413 18H1.883L3.764 11.763H5.555L7.436 18H5.87ZM3.98 15.588H5.294L4.637 12.834L3.98 15.588ZM12.2676 13.5C11.9556 13.626 11.4966 13.689 10.8906 13.689C11.2026 13.821 11.4306 13.983 11.5746 14.175C11.7186 14.367 11.7906 14.616 11.7906 14.922C11.7906 15.228 11.7096 15.504 11.5476 15.75C11.3856 15.99 11.1516 16.179 10.8456 16.317C10.5456 16.455 10.1916 16.524 9.78359 16.524C9.59159 16.524 9.40859 16.506 9.23459 16.47C9.18659 16.494 9.14759 16.533 9.11759 16.587C9.09359 16.635 9.08159 16.686 9.08159 16.74C9.08159 16.83 9.11459 16.902 9.18059 16.956C9.25259 17.004 9.39359 17.028 9.60359 17.028H10.3236C10.6896 17.028 11.0106 17.088 11.2866 17.208C11.5626 17.328 11.7756 17.493 11.9256 17.703C12.0756 17.913 12.1506 18.15 12.1506 18.414C12.1506 18.912 11.9346 19.299 11.5026 19.575C11.0766 19.857 10.4586 19.998 9.64859 19.998C9.06659 19.998 8.60759 19.935 8.27159 19.809C7.93559 19.689 7.69859 19.518 7.56059 19.296C7.42859 19.074 7.36259 18.795 7.36259 18.459H8.64059C8.64059 18.603 8.66759 18.717 8.72159 18.801C8.78159 18.885 8.88659 18.948 9.03659 18.99C9.18659 19.032 9.40259 19.053 9.68459 19.053C10.0746 19.053 10.3446 19.005 10.4946 18.909C10.6446 18.819 10.7196 18.687 10.7196 18.513C10.7196 18.369 10.6626 18.255 10.5486 18.171C10.4346 18.087 10.2636 18.045 10.0356 18.045H9.34259C8.85059 18.045 8.48159 17.958 8.23559 17.784C7.99559 17.604 7.87559 17.376 7.87559 17.1C7.87559 16.926 7.92659 16.758 8.02859 16.596C8.13059 16.428 8.26859 16.29 8.44259 16.182C8.14259 16.02 7.92359 15.831 7.78559 15.615C7.65359 15.393 7.58759 15.126 7.58759 14.814C7.58759 14.28 7.77959 13.857 8.16359 13.545C8.54759 13.227 9.05459 13.068 9.68459 13.068C10.1646 13.08 10.5696 13.032 10.8996 12.924C11.2356 12.816 11.5806 12.657 11.9346 12.447L12.2676 13.5ZM9.72059 14.004C9.49859 14.004 9.32159 14.076 9.18959 14.22C9.06359 14.358 9.00059 14.55 9.00059 14.796C9.00059 15.054 9.06359 15.255 9.18959 15.399C9.32159 15.537 9.49859 15.606 9.72059 15.606C9.95459 15.606 10.1316 15.537 10.2516 15.399C10.3776 15.261 10.4406 15.054 10.4406 14.778C10.4406 14.262 10.2006 14.004 9.72059 14.004ZM16.7885 15.516C16.7885 15.714 16.7795 15.885 16.7615 16.029H13.8005C13.8485 16.431 13.9625 16.713 14.1425 16.875C14.3225 17.037 14.5715 17.118 14.8895 17.118C15.0815 17.118 15.2675 17.085 15.4475 17.019C15.6275 16.947 15.8225 16.839 16.0325 16.695L16.6175 17.487C16.0595 17.931 15.4385 18.153 14.7545 18.153C13.9805 18.153 13.3865 17.925 12.9725 17.469C12.5585 17.013 12.3515 16.401 12.3515 15.633C12.3515 15.147 12.4385 14.712 12.6125 14.328C12.7865 13.938 13.0415 13.632 13.3775 13.41C13.7135 13.182 14.1155 13.068 14.5835 13.068C15.2735 13.068 15.8135 13.284 16.2035 13.716C16.5935 14.148 16.7885 14.748 16.7885 15.516ZM15.3935 15.111C15.3815 14.379 15.1235 14.013 14.6195 14.013C14.3735 14.013 14.1815 14.103 14.0435 14.283C13.9115 14.463 13.8305 14.76 13.8005 15.174H15.3935V15.111ZM20.3863 13.068C20.8003 13.068 21.1243 13.194 21.3583 13.446C21.5923 13.698 21.7093 14.052 21.7093 14.508V18H20.2873V14.751C20.2873 14.511 20.2483 14.346 20.1703 14.256C20.0983 14.16 19.9873 14.112 19.8373 14.112C19.5493 14.112 19.2733 14.319 19.0093 14.733V18H17.5873V13.221H18.8293L18.9283 13.788C19.1323 13.548 19.3513 13.368 19.5853 13.248C19.8253 13.128 20.0923 13.068 20.3863 13.068ZM24.8516 13.068C25.1816 13.068 25.4786 13.116 25.7426 13.212C26.0066 13.308 26.2556 13.455 26.4896 13.653L25.8776 14.499C25.5776 14.271 25.2746 14.157 24.9686 14.157C24.6506 14.157 24.4106 14.274 24.2486 14.508C24.0866 14.742 24.0056 15.12 24.0056 15.642C24.0056 16.146 24.0866 16.503 24.2486 16.713C24.4106 16.923 24.6446 17.028 24.9506 17.028C25.1126 17.028 25.2596 17.004 25.3916 16.956C25.5236 16.902 25.6826 16.818 25.8686 16.704L26.4896 17.586C26.0156 17.964 25.4786 18.153 24.8786 18.153C24.3926 18.153 23.9726 18.051 23.6186 17.847C23.2646 17.637 22.9916 17.346 22.7996 16.974C22.6076 16.596 22.5116 16.155 22.5116 15.651C22.5116 15.147 22.6076 14.7 22.7996 14.31C22.9916 13.92 23.2646 13.617 23.6186 13.401C23.9726 13.179 24.3836 13.068 24.8516 13.068ZM28.5913 11.763V18H27.1153V11.763H28.5913Z" fill="white"/>
</svg>
